<svg width="200" height="200" viewBox="0 0 200 200" fill="none" xmlns="http://www.w3.org/2000/svg">
  <!-- Background circle -->
  <circle cx="100" cy="100" r="90" fill="#0066cc" opacity="0.1"/>
  
  <!-- Main icon: Database with generation arrows -->
  <!-- Database cylinder top -->
  <ellipse cx="100" cy="70" rx="45" ry="12" fill="#0066cc"/>
  
  <!-- Database cylinder body -->
  <rect x="55" y="70" width="90" height="50" fill="#0066cc"/>
  
  <!-- Database cylinder bottom -->
  <ellipse cx="100" cy="120" rx="45" ry="12" fill="#0066cc"/>
  
  <!-- JSON brackets inside database (representing DSL/data) -->
  <text x="75" y="103" font-family="monospace" font-size="32" font-weight="bold" fill="white" opacity="0.9">{</text>
  <text x="109" y="103" font-family="monospace" font-size="32" font-weight="bold" fill="white" opacity="0.9">}</text>
  
  <!-- Generation arrows (flowing outward) - bigger, sharp edges, properly connected -->
  <!-- Right arrow -->
  <path d="M 145 95 L 175 95 L 168 88 M 175 95 L 168 102" stroke="#0066cc" stroke-width="5" fill="none"/>
  
  <!-- Left arrow -->
  <path d="M 55 95 L 25 95 L 32 88 M 25 95 L 32 102" stroke="#0066cc" stroke-width="5" fill="none"/>
  
  <!-- Top arrow -->
  <path d="M 100 58 L 100 25 L 93 32 M 100 25 L 107 32" stroke="#0066cc" stroke-width="5" fill="none"/>
  
  <!-- Bottom arrow -->
  <path d="M 100 132 L 100 165 L 93 158 M 100 165 L 107 158" stroke="#0066cc" stroke-width="5" fill="none"/>
</svg>
