<?xml version="1.0" encoding="UTF-8" standalone="no"?>
<!-- Created with Inkscape (http://www.inkscape.org/) -->

<svg
   width="210mm"
   height="297mm"
   viewBox="0 0 210 297"
   version="1.1"
   id="svg1"
   sodipodi:docname="logo_clean.svg"
   inkscape:version="1.4.2 (ebf0e940, 2025-05-08)"
   xmlns:inkscape="http://www.inkscape.org/namespaces/inkscape"
   xmlns:sodipodi="http://sodipodi.sourceforge.net/DTD/sodipodi-0.dtd"
   xmlns="http://www.w3.org/2000/svg"
   xmlns:svg="http://www.w3.org/2000/svg">
  <sodipodi:namedview
     id="namedview1"
     pagecolor="#ffffff"
     bordercolor="#000000"
     borderopacity="0.25"
     inkscape:showpageshadow="2"
     inkscape:pageopacity="0.0"
     inkscape:pagecheckerboard="0"
     inkscape:deskcolor="#d1d1d1"
     inkscape:document-units="mm"
     inkscape:export-bgcolor="#ffffff03"
     showgrid="false"
     inkscape:zoom="0.40513484"
     inkscape:cx="1534.0572"
     inkscape:cy="436.89158"
     inkscape:window-width="2560"
     inkscape:window-height="1387"
     inkscape:window-x="0"
     inkscape:window-y="25"
     inkscape:window-maximized="1"
     inkscape:current-layer="g16">
    <inkscape:grid
       id="grid27"
       units="mm"
       originx="0"
       originy="0"
       spacingx="0.99999998"
       spacingy="1"
       empcolor="#0099e5"
       empopacity="0.30196078"
       color="#0099e5"
       opacity="0.14901961"
       empspacing="5"
       enabled="true"
       visible="false" />
  </sodipodi:namedview>
  <defs
     id="defs1" />
  <g
     id="layer1"
     transform="translate(19.077236,2.65704)">
    <g
       id="g6">
      <g
         id="g7">
        <g
           id="g16">
          <g
             id="g25"
             transform="translate(0.96368826,5.475327)">
            <path
               id="path16"
               style="fill:#2c4a6f;stroke:none;stroke-width:16.281;stroke-linecap:round;stroke-linejoin:round;stroke-miterlimit:0;stroke-dasharray:none;stroke-opacity:1;paint-order:stroke markers fill"
               d="M 9.8301207 47.784633 L 9.8301207 70.36155 L 9.8301207 70.384804 C 9.8304377 84.434925 41.876348 95.929813 82.374013 96.813165 A 10.50105 10.50105 0 0 1 90.27844 93.22372 L 103.67297 93.22372 C 107.26237 93.22372 110.60265 93.51243 113.81757 94.262933 C 114.68705 94.461226 115.54689 94.689664 116.39519 94.954364 C 144.86626 91.033067 164.95891 81.51004 164.95915 70.384804 L 164.95915 47.784633 C 164.63682 48.066123 164.30951 48.340606 163.97782 48.608356 C 158.92499 52.687156 152.48777 55.794575 144.87046 58.395355 C 129.63583 63.596915 109.56373 66.588653 87.393862 66.588653 C 65.223986 66.588653 45.151898 63.596915 29.917267 58.395355 C 27.443303 57.550669 25.09362 56.652418 22.875836 55.684926 C 18.265083 53.673521 14.22322 51.362436 10.811456 48.608356 C 10.47974 48.340576 10.152478 48.066143 9.8301207 47.784633 z " />
          </g>
          <g
             id="path6"
             style="opacity:1;stroke:none"
             transform="translate(2.5644347,-59.628322)">
            <path
               style="baseline-shift:baseline;display:inline;overflow:visible;vector-effect:none;fill:#2c4a6f;stroke:none;stroke-linecap:round;stroke-linejoin:round;stroke-miterlimit:0;paint-order:stroke markers fill;enable-background:accumulate;stop-color:#000000;stop-opacity:1"
               d="m 163.48719,95.488459 c -1e-5,14.626061 -34.72678,26.482821 -77.564426,26.482821 -42.837648,0 -77.5644259,-11.85676 -77.564434,-26.482821 -6.5e-6,-14.626062 34.726775,-26.48283 77.564434,-26.48283 42.837656,2e-6 77.564436,11.856769 77.564426,26.48283 z"
               id="path5" />
          </g>
          <g
             id="g26"
             transform="translate(0.96368826,45.475326)">
            <path
               id="path25"
               style="fill:#2c4a6f;stroke:none;stroke-width:16.281;stroke-linecap:round;stroke-linejoin:round;stroke-miterlimit:0;stroke-dasharray:none;stroke-opacity:1;paint-order:stroke markers fill"
               d="M 9.8301207 47.784777 L 9.8301207 70.361693 L 9.8301207 70.384948 C 9.8304309 84.133533 40.515396 95.435027 79.778306 96.741478 L 79.778306 66.469424 C 60.638617 65.8659 43.387231 62.994548 29.917267 58.395499 C 27.443303 57.550813 25.09362 56.652562 22.875836 55.68507 C 18.265083 53.673665 14.22322 51.362579 10.811456 48.608499 C 10.47974 48.340719 10.152478 48.066287 9.8301207 47.784777 z M 164.95915 47.784777 C 164.63682 48.066267 164.30951 48.340749 163.97782 48.608499 C 161.99692 50.207537 159.80335 51.657558 157.40923 52.98601 C 158.16894 53.097502 158.92359 53.228341 159.67317 53.379784 C 161.46274 53.73176 163.21535 54.23627 164.95915 54.871683 L 164.95915 47.784777 z M 164.27444 62.596793 C 164.29064 62.605493 164.30527 62.617248 164.32147 62.626248 C 164.33222 62.632161 164.34355 62.634252 164.35454 62.639684 L 164.27444 62.596793 z M 132.13377 67.798025 C 132.14257 67.813825 132.14854 67.831218 132.15754 67.847118 C 132.16031 67.852293 132.16432 67.856736 132.16787 67.861587 L 132.13377 67.798025 z " />
          </g>
          <g
             id="g27"
             transform="translate(0.96368826,85.475325)">
            <path
               id="path26"
               style="fill:#2c4a6f;stroke:none;stroke-width:16.281;stroke-linecap:round;stroke-linejoin:round;stroke-miterlimit:0;stroke-dasharray:none;stroke-opacity:1;paint-order:stroke markers fill"
               d="M 9.8301207 47.78492 L 9.8301207 70.361837 L 9.8301207 70.385091 C 9.8304507 85.01105 44.557018 96.867682 87.394378 96.867712 C 130.23193 96.867782 164.95883 85.011118 164.95915 70.385091 L 164.95915 69.663171 C 163.7082 70.025026 162.3825 70.365279 160.9563 70.702384 A 10.50105 10.50105 0 0 1 160.8979 70.71582 C 157.42797 71.51494 153.90315 71.927116 150.3802 71.927116 C 142.19898 71.927116 134.14543 69.444109 128.3588 63.899699 A 10.50105 10.50105 0 0 1 128.33917 63.882129 C 128.04486 63.598768 127.82192 63.260231 127.57332 62.941101 C 127.35275 62.984546 127.13202 63.027573 126.91031 63.070292 C 125.51187 64.437579 123.99718 65.689125 122.31783 66.708313 A 10.50105 10.50105 0 0 1 122.30801 66.713997 C 119.44605 68.446937 116.27283 69.655283 113.00108 70.309643 C 109.94765 70.920323 106.75665 71.157654 103.30193 71.157654 L 90.27844 71.157654 A 10.50105 10.50105 0 0 1 81.567344 66.519177 C 61.714043 66.042725 43.80566 63.137556 29.917267 58.395642 C 27.443303 57.550956 25.09362 56.652705 22.875836 55.685213 C 18.265083 53.673808 14.22322 51.362722 10.811456 48.608642 C 10.47974 48.340862 10.152478 48.06643 9.8301207 47.78492 z " />
          </g>
          <g
             id="text13"
             style="opacity:1">
            <path
               style="font-weight:bold;font-size:50.8px;-inkscape-font-specification:'sans-serif Bold';baseline-shift:baseline;display:inline;overflow:visible;vector-effect:none;fill:#2c4a6f;stroke-linecap:round;stroke-linejoin:round;stroke-miterlimit:0;paint-order:stroke markers fill;enable-background:accumulate;stop-color:#000000;stop-opacity:1"
               d="m 126.14296,127.70385 q 0,5.15937 -2.35644,9.25214 -2.35645,4.06797 -5.95313,6.25078 -2.70371,1.63711 -5.92832,2.28204 -3.22461,0.64492 -7.63984,0.64492 H 91.242767 V 109.19955 H 104.6373 q 4.51445,0 7.78867,0.76894 3.27422,0.74414 5.50664,2.13321 3.81992,2.33164 6.00273,6.30039 2.20762,3.94394 2.20762,9.30176 z m -9.84746,-0.0744 q 0,-3.64629 -1.33945,-6.22598 -1.31465,-2.60449 -4.19199,-4.06796 -1.46348,-0.71934 -3.00137,-0.96739 -1.51309,-0.27285 -4.58887,-0.27285 h -2.40605 v 23.11797 h 2.40605 q 3.39824,0 4.98574,-0.29766 1.5875,-0.32246 3.10059,-1.14101 2.60449,-1.48828 3.81992,-3.96875 1.21543,-2.50527 1.21543,-6.17637 z m 49.78301,16.3959 q -2.48047,0.96738 -6.57324,1.93477 -4.09278,0.94257 -8.16075,0.94257 -9.42578,0 -14.75878,-5.10976 -5.33301,-5.13457 -5.33301,-14.16348 0,-8.60723 5.38262,-13.86582 5.38261,-5.2834 15.00683,-5.2834 3.64629,0 6.94531,0.66973 3.29903,0.64492 7.34219,2.60449 v 8.65684 h -1.0666 q -0.69453,-0.5209 -2.03399,-1.46348 -1.33945,-0.96738 -2.57968,-1.63711 -1.43867,-0.79375 -3.37344,-1.36426 -1.90996,-0.5705 -4.06797,-0.5705 -2.53008,0 -4.58887,0.74414 -2.05878,0.74414 -3.69589,2.28203 -1.5627,1.48828 -2.48047,3.79511 -0.89297,2.28204 -0.89297,5.2834 0,6.12676 3.24941,9.37618 3.24942,3.24941 9.59942,3.24941 0.5457,0 1.19062,-0.0248 0.66973,-0.0248 1.21543,-0.0744 V 132.764 h -7.36699 v -6.97012 h 17.04082 z"
               id="path29" />
          </g>
        </g>
      </g>
    </g>
  </g>
</svg>
