<?xml version="1.0" encoding="UTF-8" standalone="no"?>
<!-- Created with Inkscape (http://www.inkscape.org/) -->

<svg
   width="155.28468mm"
   height="172.96576mm"
   viewBox="0 0 155.28468 172.96576"
   version="1.1"
   id="svg1"
   sodipodi:docname="logo_clean.svg"
   inkscape:version="1.4.2 (ebf0e940, 2025-05-08)"
   xmlns:inkscape="http://www.inkscape.org/namespaces/inkscape"
   xmlns:sodipodi="http://sodipodi.sourceforge.net/DTD/sodipodi-0.dtd"
   xmlns="http://www.w3.org/2000/svg"
   xmlns:svg="http://www.w3.org/2000/svg">
  <sodipodi:namedview
     id="namedview1"
     pagecolor="#ffffff"
     bordercolor="#000000"
     borderopacity="0.25"
     inkscape:showpageshadow="2"
     inkscape:pageopacity="0.0"
     inkscape:pagecheckerboard="0"
     inkscape:deskcolor="#d1d1d1"
     inkscape:document-units="mm"
     inkscape:export-bgcolor="#ffffff03"
     showgrid="false"
     inkscape:zoom="0.40513484"
     inkscape:cx="1534.0572"
     inkscape:cy="436.89158"
     inkscape:window-width="2560"
     inkscape:window-height="1387"
     inkscape:window-x="0"
     inkscape:window-y="25"
     inkscape:window-maximized="1"
     inkscape:current-layer="g16">
    <inkscape:grid
       id="grid27"
       units="mm"
       originx="-29.871044"
       originy="-12.034347"
       spacingx="0.99999998"
       spacingy="1"
       empcolor="#0099e5"
       empopacity="0.30196078"
       color="#0099e5"
       opacity="0.14901961"
       empspacing="5"
       enabled="true"
       visible="false" />
    <inkscape:page
       x="-5.7631017e-14"
       y="-2.384277e-14"
       width="155.2847"
       height="172.96574"
       id="page2"
       margin="0"
       bleed="0" />
  </sodipodi:namedview>
  <defs
     id="defs1" />
  <g
     id="layer1"
     transform="translate(-10.793807,-9.3773073)">
    <g
       id="g6">
      <g
         id="g7">
        <g
           id="g16">
          <g
             id="g25"
             transform="translate(0.96368826,5.475327)"
             inkscape:export-filename="dg_logo.svg"
             inkscape:export-xdpi="96"
             inkscape:export-ydpi="96">
            <path
               id="path16"
               style="fill:#ffffff;stroke:none;stroke-width:16.281;stroke-linecap:round;stroke-linejoin:round;stroke-miterlimit:0;stroke-dasharray:none;stroke-opacity:1;paint-order:stroke markers fill"
               d="M 9.8301207,47.784633 V 70.36155 70.3848 C 9.8304377,84.434925 41.876348,95.929813 82.374013,96.813165 A 10.50105,10.50105 0 0 1 90.27844,93.22372 h 13.39453 c 3.5894,0 6.92968,0.28871 10.1446,1.039213 0.86948,0.198293 1.72932,0.426731 2.57762,0.691431 28.47107,-3.921297 48.56372,-13.444324 48.56396,-24.56956 V 47.784633 c -0.32233,0.28149 -0.64964,0.555973 -0.98133,0.823723 -5.05283,4.0788 -11.49005,7.186219 -19.10736,9.786999 -15.23463,5.20156 -35.30673,8.193298 -57.476598,8.193298 -22.169876,0 -42.241964,-2.991738 -57.476595,-8.193298 -2.473964,-0.844686 -4.823647,-1.742937 -7.041431,-2.710429 -4.610753,-2.011405 -8.652616,-4.32249 -12.06438,-7.07657 -0.331716,-0.26778 -0.658978,-0.542213 -0.9813353,-0.823723 z" />
          </g>
          <g
             id="path6"
             style="opacity:1;stroke:none"
             transform="translate(2.5644347,-59.628322)">
            <path
               style="baseline-shift:baseline;display:inline;overflow:visible;vector-effect:none;fill:#ffffff;stroke:none;stroke-linecap:round;stroke-linejoin:round;stroke-miterlimit:0;paint-order:stroke markers fill;enable-background:accumulate;stop-color:#000000;stop-opacity:1"
               d="m 163.48719,95.488459 c -1e-5,14.626061 -34.72678,26.482821 -77.564426,26.482821 -42.837648,0 -77.5644259,-11.85676 -77.564434,-26.482821 -6.5e-6,-14.626062 34.726775,-26.48283 77.564434,-26.48283 42.837656,2e-6 77.564436,11.856769 77.564426,26.48283 z"
               id="path5" />
          </g>
          <g
             id="g26"
             transform="translate(0.96368826,45.475326)">
            <path
               id="path25"
               style="fill:#ffffff;stroke:none;stroke-width:16.281;stroke-linecap:round;stroke-linejoin:round;stroke-miterlimit:0;stroke-dasharray:none;stroke-opacity:1;paint-order:stroke markers fill"
               d="m 9.8301207,47.784777 v 22.576916 0.02325 C 9.8304309,84.133533 40.515396,95.435027 79.778306,96.741478 V 66.469424 C 60.638617,65.8659 43.387231,62.994548 29.917267,58.395499 27.443303,57.550813 25.09362,56.652562 22.875836,55.68507 18.265083,53.673665 14.22322,51.362579 10.811456,48.608499 10.47974,48.340719 10.152478,48.066287 9.8301207,47.784777 Z m 155.1290293,0 c -0.32233,0.28149 -0.64964,0.555972 -0.98133,0.823722 -1.9809,1.599038 -4.17447,3.049059 -6.56859,4.377511 0.75971,0.111492 1.51436,0.242331 2.26394,0.393774 1.78957,0.351976 3.54218,0.856486 5.28598,1.491899 z m -0.68471,14.812016 c 0.0162,0.0087 0.0308,0.02045 0.047,0.02945 0.0108,0.0059 0.0221,0.008 0.0331,0.01344 z m -32.14067,5.201232 c 0.009,0.0158 0.0148,0.03319 0.0238,0.04909 0.003,0.0052 0.007,0.0096 0.0103,0.01447 z" />
          </g>
          <g
             id="g27"
             transform="translate(0.96368826,85.475325)">
            <path
               id="path26"
               style="fill:#ffffff;stroke:none;stroke-width:16.281;stroke-linecap:round;stroke-linejoin:round;stroke-miterlimit:0;stroke-dasharray:none;stroke-opacity:1;paint-order:stroke markers fill"
               d="m 9.8301207,47.78492 v 22.576917 0.02325 c 3.3e-4,14.625959 34.7268973,26.482591 77.5642573,26.482621 42.837552,7e-5 77.564452,-11.856594 77.564772,-26.482621 v -0.72192 c -1.25095,0.361855 -2.57665,0.702108 -4.00285,1.039213 a 10.50105,10.50105 0 0 1 -0.0584,0.01344 c -3.46993,0.79912 -6.99475,1.211296 -10.5177,1.211296 -8.18122,0 -16.23477,-2.483007 -22.0214,-8.027417 a 10.50105,10.50105 0 0 1 -0.0196,-0.01757 c -0.29431,-0.283361 -0.51725,-0.621898 -0.76585,-0.941028 -0.22057,0.04344 -0.4413,0.08647 -0.66301,0.129191 -1.39844,1.367287 -2.91313,2.618833 -4.59248,3.638021 a 10.50105,10.50105 0 0 1 -0.01,0.0057 c -2.86196,1.73294 -6.03518,2.941286 -9.30693,3.595646 -3.05343,0.61068 -6.24443,0.848011 -9.69915,0.848011 H 90.27844 A 10.50105,10.50105 0 0 1 81.567344,66.519177 C 61.714043,66.042725 43.80566,63.137556 29.917267,58.395642 27.443303,57.550956 25.09362,56.652705 22.875836,55.685213 18.265083,53.673808 14.22322,51.362722 10.811456,48.608642 10.47974,48.340862 10.152478,48.06643 9.8301207,47.78492 Z" />
          </g>
          <g
             id="text13"
             style="opacity:1">
            <path
               style="font-weight:bold;font-size:50.8px;-inkscape-font-specification:'sans-serif Bold';baseline-shift:baseline;display:inline;overflow:visible;vector-effect:none;fill:#ffffff;stroke-linecap:round;stroke-linejoin:round;stroke-miterlimit:0;paint-order:stroke markers fill;enable-background:accumulate;stop-color:#000000;stop-opacity:1"
               d="m 126.14296,127.70385 q 0,5.15937 -2.35644,9.25214 -2.35645,4.06797 -5.95313,6.25078 -2.70371,1.63711 -5.92832,2.28204 -3.22461,0.64492 -7.63984,0.64492 H 91.242767 V 109.19955 H 104.6373 q 4.51445,0 7.78867,0.76894 3.27422,0.74414 5.50664,2.13321 3.81992,2.33164 6.00273,6.30039 2.20762,3.94394 2.20762,9.30176 z m -9.84746,-0.0744 q 0,-3.64629 -1.33945,-6.22598 -1.31465,-2.60449 -4.19199,-4.06796 -1.46348,-0.71934 -3.00137,-0.96739 -1.51309,-0.27285 -4.58887,-0.27285 h -2.40605 v 23.11797 h 2.40605 q 3.39824,0 4.98574,-0.29766 1.5875,-0.32246 3.10059,-1.14101 2.60449,-1.48828 3.81992,-3.96875 1.21543,-2.50527 1.21543,-6.17637 z m 49.78301,16.3959 q -2.48047,0.96738 -6.57324,1.93477 -4.09278,0.94257 -8.16075,0.94257 -9.42578,0 -14.75878,-5.10976 -5.33301,-5.13457 -5.33301,-14.16348 0,-8.60723 5.38262,-13.86582 5.38261,-5.2834 15.00683,-5.2834 3.64629,0 6.94531,0.66973 3.29903,0.64492 7.34219,2.60449 v 8.65684 h -1.0666 q -0.69453,-0.5209 -2.03399,-1.46348 -1.33945,-0.96738 -2.57968,-1.63711 -1.43867,-0.79375 -3.37344,-1.36426 -1.90996,-0.5705 -4.06797,-0.5705 -2.53008,0 -4.58887,0.74414 -2.05878,0.74414 -3.69589,2.28203 -1.5627,1.48828 -2.48047,3.79511 -0.89297,2.28204 -0.89297,5.2834 0,6.12676 3.24941,9.37618 3.24942,3.24941 9.59942,3.24941 0.5457,0 1.19062,-0.0248 0.66973,-0.0248 1.21543,-0.0744 V 132.764 h -7.36699 v -6.97012 h 17.04082 z"
               id="path29" />
          </g>
        </g>
      </g>
    </g>
  </g>
</svg>
